<svg width="50" height="50" viewBox="0 0 50 50" fill="none" xmlns="http://www.w3.org/2000/svg">
<g clip-path="url(#clip0_7758_19957)">
<path d="M16 38C19 38 22 37 22 33C22 29 19.6943 27 16 27C16 25.3431 17.3431 24 19 24H23C26.5931 25.2996 29 28 29 33C29 41 23 44 16 44C9 44 4 41 4 33H11C11 36 13 38 16 38Z" fill="#985184"/>
<path d="M23 24H18C16.8954 24 16 23.1046 16 22C20 22 21 19 21 17C21 14 19.0364 12 16 12C13 12 11 14 11 16H4C4 9.61625 10 6 16 6C22 6 28 10 28 16C28 22 23 24 23 24Z" fill="#1AD3BB"/>
<path d="M23 24L16 27H12V25C12 23 13 22 16 22L23 24Z" fill="#005E7A"/>
<path d="M39 7.33301L32 11.9999L31 17.9999L39 13.9999V7.33301Z" fill="#985184"/>
<path d="M39 7.33333L41 6H42C44 6 46 8 46 10V11L39 14V7.33333Z" fill="#005E7A"/>
<path d="M46 37V11L39 14V37H46Z" fill="#1AD3BB"/>
<path d="M50 34.5C50 39.7467 45.7467 44 40.5 44C35.2533 44 31 39.7467 31 34.5C31 29.2533 35.2533 25 40.5 25C45.7467 25 50 29.2533 50 34.5Z" fill="#005E7A"/>
<path d="M45.6247 30.813L44.5869 29.75L39.4771 34.9839L36.412 31.8426L35.3745 32.9059C34.8192 33.475 34.8192 34.3977 35.3745 34.9668L39.4764 39.1708L45.6247 32.8733C46.1802 32.3044 46.1802 31.382 45.6247 30.813Z" fill="white"/>
</g>
<defs>
<clipPath id="clip0_7758_19957">
<rect width="50" height="50" fill="white"/>
</clipPath>
</defs>
</svg>
