<svg width="50" height="50" viewBox="0 0 50 50" fill="none" xmlns="http://www.w3.org/2000/svg">
<g clip-path="url(#clip0_7758_19981)">
<path d="M28 16C28 21.5228 23.5228 26 18 26C12.4772 26 8 21.5228 8 16C8 10.4772 12.4772 6 18 6C23.5228 6 28 10.4772 28 16Z" fill="#1AD3BB"/>
<path d="M43 24C43 26.7614 40.7614 29 38 29C35.2386 29 33 26.7614 33 24C33 21.2386 35.2386 19 38 19C40.7614 19 43 21.2386 43 24Z" fill="#005E7A"/>
<path d="M16 31H42C44.2091 31 46 32.7909 46 35V40C46 42.2091 44.2091 44 42 44H16V31Z" fill="#005E7A"/>
<path d="M4 31H20C27.1797 31 33 36.8203 33 44H17C9.8203 44 4 38.1797 4 31Z" fill="#1AD3BB"/>
<path d="M23.5489 12.1284L22.4253 11L16.8928 16.5556L13.5742 13.2212L12.4509 14.3499C11.8497 14.954 11.8497 15.9334 12.4509 16.5375L16.8921 21L23.5489 14.3154C24.1504 13.7114 24.1504 12.7323 23.5489 12.1284Z" fill="white"/>
</g>
<defs>
<clipPath id="clip0_7758_19981">
<rect width="50" height="50" fill="white"/>
</clipPath>
</defs>
</svg>
