<svg width="50" height="50" viewBox="0 0 50 50" fill="none" xmlns="http://www.w3.org/2000/svg">
<g clip-path="url(#clip0_7758_19991)">
<path d="M23.0003 0.0791016V19.0003C23.0003 21.2094 21.2094 23.0003 19.0003 23.0003H0.0791016C1.04575 10.7881 10.7881 1.04575 23.0003 0.0791016Z" fill="#1AD3BB"/>
<path d="M49.9212 23.0003H31C28.7909 23.0003 27 21.2094 27 19.0003V0.0791016C39.2122 1.04575 48.9545 10.7881 49.9212 23.0003Z" fill="#985184"/>
<path d="M49.9212 27C48.9545 39.2122 39.2122 48.9545 27 49.9212V31C27 28.7909 28.7909 27 31 27H49.9212Z" fill="#2EBCFA"/>
<path d="M23.0003 49.9212C10.7881 48.9545 1.04575 39.2122 0.0791016 27H19.0003C21.2094 27 23.0003 28.7909 23.0003 31V49.9212Z" fill="#F9464C"/>
</g>
<defs>
<clipPath id="clip0_7758_19991">
<rect width="50" height="50" fill="white"/>
</clipPath>
</defs>
</svg>
