<svg width="50" height="50" viewBox="0 0 50 50" fill="none" xmlns="http://www.w3.org/2000/svg">
<g clip-path="url(#clip0_7758_19960)">
<path d="M45.8723 9C49.3927 9.04136 51.3762 13.4739 48.8847 15.9639L40.4611 24.3828L36.4993 26.9995L24.999 9.00062L45.8723 9Z" fill="#985184"/>
<path d="M10.9447 25.7881C9.39213 27.3398 9.39213 29.8556 10.9447 31.4073L19.3783 39.8361C20.9309 41.3878 23.4482 41.3878 25.0008 39.8361L23.4998 36L14.9998 27L10.9447 25.7881Z" fill="#985184"/>
<path d="M1.11406 15.9643C-1.37736 13.4743 0.607765 9.04136 4.12814 9L25.0001 9.00042L40.4611 24.3832C42.0137 25.9349 42.0137 28.4507 40.4611 30.0024L30.6219 39.8359C29.0694 41.3876 26.5521 41.3876 24.9995 39.8359L1.11406 15.9643Z" fill="#1AD3BB"/>
<path d="M24.9994 39.8358C26.552 38.2841 26.552 35.7683 24.9994 34.2166L16.5658 25.7878C15.0132 24.2361 12.4959 24.2361 10.9434 25.7878L24.9994 39.8358Z" fill="#005E7A"/>
<path d="M17.6204 16.3056L24.9999 9L34.1363 18.0616C31.8074 15.7341 28.0316 15.7341 25.7027 18.0616L22.5401 21.2224C21.1816 22.5802 18.979 22.5802 17.6204 21.2224C16.2619 19.8647 16.2619 17.6634 17.6204 16.3056Z" fill="#005E7A"/>
</g>
<defs>
<clipPath id="clip0_7758_19960">
<rect width="50" height="50" fill="white"/>
</clipPath>
</defs>
</svg>
