<svg width="50" height="50" viewBox="0 0 50 50" fill="none" xmlns="http://www.w3.org/2000/svg">
<g clip-path="url(#clip0_7758_19984)">
<path d="M34 17C34 21.9706 29.9706 26 25 26C20.0294 26 16 21.9706 16 17C16 12.0294 20.0294 8 25 8C29.9706 8 34 12.0294 34 17Z" fill="#985184"/>
<path d="M12 24C12 26.2091 10.2091 28 8 28C5.79086 28 4 26.2091 4 24C4 21.7909 5.79086 20 8 20C10.2091 20 12 21.7909 12 24Z" fill="#FBB945"/>
<path d="M46 24C46 26.2091 44.2091 28 42 28C39.7909 28 38 26.2091 38 24C38 21.7909 39.7909 20 42 20C44.2091 20 46 21.7909 46 24Z" fill="#1AD3BB"/>
<path d="M25 30H4C1.79086 30 0 31.7909 0 34V38C0 40.2091 1.79086 42 4 42H25V30Z" fill="#FBB945"/>
<path d="M46 30H25V42H46C48.2091 42 50 40.2091 50 38V34C50 31.7909 48.2091 30 46 30Z" fill="#1AD3BB"/>
<path d="M12 30H26C32.6274 30 38 35.3726 38 42H24C17.3726 42 12 36.6274 12 30Z" fill="#985184"/>
</g>
<defs>
<clipPath id="clip0_7758_19984">
<rect width="50" height="50" fill="white"/>
</clipPath>
</defs>
</svg>
