<svg width="48" height="48" viewBox="0 0 48 48" fill="none" xmlns="http://www.w3.org/2000/svg">
<path d="M24.1025 26.5322L38.249 29.5107C38.7782 29.6223 38.7782 30.3777 38.249 30.4893L24.1025 33.4678C24.035 33.4819 23.965 33.4819 23.8975 33.4678L9.75098 30.4893C9.22183 30.3777 9.22183 29.6223 9.75098 29.5107L23.8975 26.5322C23.965 26.5181 24.035 26.5181 24.1025 26.5322Z" fill="#FEEDCD" stroke="#E92E26"/>
<path d="M24.1025 20.5322L38.249 23.5107C38.7782 23.6223 38.7782 24.3777 38.249 24.4893L24.1025 27.4678C24.035 27.4819 23.965 27.4819 23.8975 27.4678L9.75098 24.4893C9.22183 24.3777 9.22183 23.6223 9.75098 23.5107L23.8975 20.5322C23.965 20.5181 24.035 20.5181 24.1025 20.5322Z" fill="#FEEDCD" stroke="#E92E26"/>
<path d="M24.1025 14.5322L38.249 17.5107C38.7782 17.6223 38.7782 18.3777 38.249 18.4893L24.1025 21.4678C24.035 21.4819 23.965 21.4819 23.8975 21.4678L9.75098 18.4893C9.22183 18.3777 9.22183 17.6223 9.75098 17.5107L23.8975 14.5322C23.965 14.5181 24.035 14.5181 24.1025 14.5322Z" fill="#FEEDCD" stroke="#E92E26"/>
</svg>
